<svg xmlns="http://www.w3.org/2000/svg" version="1.1" xmlns:xlink="http://www.w3.org/1999/xlink" xmlns:svgjs="http://svgjs.com/svgjs" width="512" height="512" x="0" y="0" viewBox="0 0 512 512" style="enable-background:new 0 0 512 512" xml:space="preserve" class=""><g><linearGradient id="SVGID_1_" gradientUnits="userSpaceOnUse" x1="0" x2="512" y1="256" y2="256"><stop offset="0" stop-color="#00f2fe"></stop><stop offset=".0208" stop-color="#03effe"></stop><stop offset=".2931" stop-color="#24d2fe"></stop><stop offset=".5538" stop-color="#3cbdfe"></stop><stop offset=".7956" stop-color="#4ab0fe"></stop><stop offset="1" stop-color="#4facfe"></stop></linearGradient><g><path d="m512 40.17c0-11.046-8.954-20-20-20h-472c-11.046 0-20 8.954-20 20 0 10.731 8.451 19.488 19.062 19.978v221.285c0 44.112 35.888 80 80 80h136.938v23.282c-20.395 8.097-34.871 28.198-34.871 51.651 0 30.583 24.615 55.465 54.871 55.465s54.871-24.882 54.871-55.465c0-23.453-14.476-43.554-34.871-51.651v-23.282h136.938c44.112 0 80-35.888 80-80v-.22c0-11.046-8.954-20-20-20s-20 8.954-20 20v.22c0 22.056-17.944 40-40 40h-313.876c-22.056 0-40-17.944-40-40v-221.263h393.877v121.043c0 11.046 8.954 20 20 20s20-8.954 20-20v-121.065c10.61-.49 19.061-9.247 19.061-19.978zm-256 411.66c-8.2 0-14.871-6.938-14.871-15.465s6.671-15.465 14.871-15.465 14.871 6.938 14.871 15.465-6.671 15.465-14.871 15.465zm-152.788-200.673c-3.678 10.415 1.783 21.841 12.198 25.519 10.414 3.679 21.84-1.782 25.519-12.198 5.989-16.958 22.106-28.352 40.104-28.352s34.115 11.394 40.104 28.352c2.9 8.213 10.617 13.346 18.858 13.346 2.209 0 4.458-.37 6.66-1.147 10.415-3.678 15.876-15.104 12.198-25.519-5.643-15.979-15.917-29.412-28.991-39.006 8.112-10.455 12.946-23.574 12.946-37.801 0-34.064-27.713-61.777-61.776-61.777-34.064 0-61.777 27.713-61.777 61.777 0 14.227 4.834 27.346 12.947 37.801-13.073 9.593-23.347 23.026-28.99 39.005zm56.044-76.807c0-12.008 9.769-21.777 21.777-21.777 12.007 0 21.776 9.77 21.776 21.777s-9.769 21.776-21.776 21.776c-12.008 0-21.777-9.769-21.777-21.776zm152.546 5.953c11.046 0 20 8.954 20 20v57.515c0 11.046-8.954 20-20 20s-20-8.954-20-20v-57.515c0-11.046 8.954-20 20-20zm78.128-76.518c11.046 0 20 8.954 20 20v134.032c0 11.046-8.954 20-20 20s-20-8.954-20-20v-134.032c0-11.046 8.954-20 20-20z" fill="url(#SVGID_1_)" data-original="url(#SVGID_1_)"></path></g></g></svg>
